<svg width="75" height="75" viewBox="0 0 75 75" fill="none" xmlns="http://www.w3.org/2000/svg">
<path d="M6.78246 16H42.6896C46.4798 16 49.4721 19.092 49.4721 22.7825V66.0705C49.4721 69.8607 46.3801 72.853 42.6896 72.853H6.78246C2.99226 72.853 0 69.761 0 66.0705V22.7825C0 19.092 3.09201 16 6.78246 16Z" fill="#87E8D1"/>
<path d="M16.7825 7H52.6896C56.4798 7 59.4721 10.092 59.4721 13.7825V57.0705C59.4721 60.8607 56.3801 63.853 52.6896 63.853H16.7825C12.9923 63.853 10 60.761 10 57.0705V13.7825C10 10.092 13.092 7 16.7825 7Z" fill="white" stroke="#1F243C" stroke-miterlimit="10" stroke-linecap="round" stroke-linejoin="round"/>
<path d="M19 17H50" stroke="#1F243C" stroke-linecap="round"/>
<path d="M19.2764 27.4468H37.8284" stroke="#1F243C" stroke-linecap="round"/>
<path d="M50.6231 22.4359L51.1218 24.331C51.3213 25.2287 52.1192 26.0266 53.0169 26.2261L54.912 26.7248C55.4107 26.8245 55.4107 27.5227 54.912 27.6225L53.0169 28.1212C52.1192 28.3207 51.3213 29.1186 51.1218 30.0163L50.6231 31.8116C50.5233 32.3104 49.8251 32.3104 49.7254 31.8116L49.2267 29.9165C49.0272 29.0189 48.2293 28.2209 47.3316 28.0214L45.4365 27.5227C44.9378 27.423 44.9378 26.7248 45.4365 26.625L47.3316 26.1263C48.2293 25.9269 49.0272 25.1289 49.2267 24.2312L49.7254 22.3361C49.7254 21.9372 50.4236 21.9372 50.6231 22.4359Z" fill="#86E8D1" stroke="#1F243C" stroke-miterlimit="10" stroke-linecap="round" stroke-linejoin="round"/>
<path d="M38.5517 33.809L38.9507 35.3051C39.1501 36.0033 39.7486 36.6018 40.4468 36.8013L41.9429 37.2002C42.3419 37.3 42.3419 37.8984 41.9429 37.8984L40.4468 38.2974C39.7486 38.4969 39.1501 39.0953 38.9507 39.7935L38.5517 41.2897C38.452 41.6886 37.8535 41.6886 37.8535 41.2897L37.4545 39.7935C37.255 39.0953 36.6566 38.4969 35.9584 38.2974L34.4623 37.8984C34.0633 37.7987 34.0633 37.2002 34.4623 37.2002L35.9584 36.8013C36.6566 36.6018 37.255 36.0033 37.4545 35.3051L37.8535 33.809C37.9532 33.41 38.452 33.41 38.5517 33.809Z" fill="#86E8D1" stroke="#1F243C" stroke-miterlimit="10" stroke-linecap="round" stroke-linejoin="round"/>
<path d="M49.1268 73.7051C47.5309 73.7051 46.334 72.4084 46.334 70.9123V39.7928C46.334 38.1969 47.6306 37 49.1268 37C50.7226 37 51.9195 38.2966 51.9195 39.7928V70.9123C51.9195 72.5082 50.6229 73.7051 49.1268 73.7051Z" fill="white" stroke="#1F243C" stroke-miterlimit="10" stroke-linecap="round" stroke-linejoin="round"/>
<path d="M51.9195 47.174V39.8928C51.9195 38.297 50.6229 37.1001 49.1268 37.1001C47.5309 37.1001 46.334 38.3967 46.334 39.8928V47.174H51.9195Z" fill="white" stroke="#1F243C" stroke-miterlimit="10" stroke-linecap="round" stroke-linejoin="round"/>
</svg>
