<svg width="75" height="75" viewBox="0 0 75 75" fill="none" xmlns="http://www.w3.org/2000/svg">
<path d="M7.44354 16.0001H41.5564C45.1572 16.0001 48 19.2089 48 23.0387V67.9615C48 71.8949 45.0625 75.0001 41.5564 75.0001H7.44354C3.84273 75.0001 1 71.7914 1 67.9615V23.0387C1 19.2089 3.84273 16.0001 7.44354 16.0001Z" fill="#86E8D1"/>
<path d="M17.4436 6H51.5565C55.1573 6 58 9.20876 58 13.0386V57.9614C58 61.8948 55.0625 65 51.5565 65H17.4436C13.8428 65 11 61.7912 11 57.9614V13.0386C11 9.20876 13.8428 6 17.4436 6Z" fill="white" stroke="#1F243C" stroke-miterlimit="10" stroke-linecap="round" stroke-linejoin="round"/>
<path d="M17.5273 37.3201H41.5165" stroke="#1F243C" stroke-miterlimit="10" stroke-linecap="round" stroke-linejoin="round"/>
<path d="M17.5273 45.3079H32.1295" stroke="#1F243C" stroke-miterlimit="10" stroke-linecap="round" stroke-linejoin="round"/>
<path d="M17.5273 29.3323H41.5165" stroke="#1F243C" stroke-miterlimit="10" stroke-linecap="round" stroke-linejoin="round"/>
<path d="M60.0229 1.85396L43.6182 24.5071C43.1604 25.1215 43.6182 25.9661 44.3812 25.9661H54.3766C54.9107 25.9661 55.3685 26.5037 55.2922 27.0412L52.6217 40.3259C52.4691 41.2474 53.6899 41.785 54.224 41.0171L70.8576 18.2103C71.3154 17.596 70.8576 16.7513 70.0946 16.7513H60.1755C59.6414 16.7513 59.1836 16.2138 59.2599 15.6762L61.5489 2.54504C61.7778 1.62356 60.557 1.08605 60.0229 1.85396Z" fill="#86E8D1" stroke="#1F243C" stroke-miterlimit="10" stroke-linecap="round" stroke-linejoin="round"/>
</svg>
