<svg width="75" height="75" viewBox="0 0 75 75" fill="none" xmlns="http://www.w3.org/2000/svg">
<path d="M7.71773 18H43.2822C47.0363 18 50 21.1 50 24.8V68.2C50 72 46.9375 75 43.2822 75H7.71773C3.9637 75 1 71.9 1 68.2V24.8C1 21.1 3.9637 18 7.71773 18Z" fill="#86E8D1"/>
<path d="M19.6849 8H48.0249C52.8245 8 56.7098 12.0641 56.7098 17.0846V56.0527C56.7098 61.0731 52.8245 65.1373 48.0249 65.1373H19.6849C14.8853 65.1373 11 61.0731 11 56.0527V17.0846C11 12.0641 14.8853 8 19.6849 8Z" fill="white" stroke="#1F243C" stroke-miterlimit="10" stroke-linecap="round" stroke-linejoin="round"/>
<path d="M17.7422 34.5365H49.739" stroke="#1F243C" stroke-miterlimit="10" stroke-linecap="round" stroke-linejoin="round"/>
<path d="M17.7422 44.11H49.739" stroke="#1F243C" stroke-miterlimit="10" stroke-linecap="round" stroke-linejoin="round"/>
<path d="M17.7422 25.8112H49.739" stroke="#1F243C" stroke-miterlimit="10" stroke-linecap="round" stroke-linejoin="round"/>
<path d="M17.7422 17.085H49.739" stroke="#1F243C" stroke-miterlimit="10" stroke-linecap="round" stroke-linejoin="round"/>
<g clip-path="url(#clip0_15225_49522)">
<path d="M51.3194 53.7377C59.5407 53.7377 66.2053 47.0097 66.2053 38.7103C66.2053 30.4109 59.5407 23.6829 51.3194 23.6829C43.0982 23.6829 36.4336 30.4109 36.4336 38.7103C36.4336 47.0097 43.0982 53.7377 51.3194 53.7377Z" fill="white" stroke="#1F243C" stroke-miterlimit="10" stroke-linejoin="round"/>
<path d="M36.7637 39.958C36.7637 39.958 37.1822 39.958 40.7671 39.958" stroke="#1F243C" stroke-width="1.21569" stroke-miterlimit="10" stroke-linecap="round" stroke-linejoin="round"/>
<path d="M43.6289 39.958C43.6289 39.958 44.6815 39.958 53.6963 39.958" stroke="#1F243C" stroke-width="1.21569" stroke-miterlimit="10" stroke-linecap="round" stroke-linejoin="round"/>
<path d="M39.4238 30.6495H46.3905" stroke="#1F243C" stroke-width="1.21569" stroke-miterlimit="10" stroke-linecap="round" stroke-linejoin="round"/>
<path d="M50.2129 30.6495H57.1796" stroke="#1F243C" stroke-width="1.21569" stroke-miterlimit="10" stroke-linecap="round" stroke-linejoin="round"/>
</g>
<path d="M71.0935 59.6476C71.2887 59.8429 71.6053 59.8429 71.8006 59.6476C71.9958 59.4524 71.9958 59.1358 71.8006 58.9405L71.0935 59.6476ZM61.4687 50.0229L71.0935 59.6476L71.8006 58.9405L62.1758 49.3158L61.4687 50.0229Z" fill="#1F243C"/>
<defs>
<clipPath id="clip0_15225_49522">
<rect width="33.5244" height="36.2426" fill="white" transform="translate(35.5273 23.0515)"/>
</clipPath>
</defs>
</svg>
